<svg xmlns="http://www.w3.org/2000/svg" viewBox="0 0 64 64" role="img" aria-labelledby="title">
  <title>Furshet SV favicon</title>
  <rect width="64" height="64" rx="18" fill="#fbf7f2"/>
  <rect x="6" y="6" width="52" height="52" rx="16" fill="#f3ebde" stroke="#6d7a46" stroke-width="2"/>
  <path d="M19 24c0-2.21 1.79-4 4-4h18c2.21 0 4 1.79 4 4v2c0 6.08-4.92 11-11 11h-4c-6.08 0-11-4.92-11-11z" fill="#6d7a46"/>
  <path d="M29 37h6v7a3 3 0 0 1-6 0z" fill="#c3a163"/>
  <circle cx="24" cy="25" r="2.2" fill="#fbf7f2"/>
  <circle cx="32" cy="23" r="2.2" fill="#c3a163"/>
  <circle cx="40" cy="25" r="2.2" fill="#fbf7f2"/>
  <path d="M22 46h20" stroke="#6d7a46" stroke-width="3" stroke-linecap="round"/>
</svg>
